# xmcd
# Track frame offsets:
# 150
# 13087
# 27392
# 43407
# 61917
# 77360
# 94372
# 104682
# 124125
# 140475
# 154017
# 166230
# 182082
# 194267
#
# Disc length: 2806 seconds
# Revision: 1
# Processed by: cddbd v1.5.2PL0 Copyright (c) Steve Scherf et al.
# Submitted via: VisiTrax 2.11.3.279 - For more info visit www.synapsa.com
#
DISCID=be0af40e
DTITLE=Slim Dusty - Walk A Country Mile
DYEAR=1979
DGENRE=Australian Country
TTITLE0=Walk A Country Mile
TTITLE1=Son Of Noisy Dan
TTITLE2=When The Rain Tumbles Down In July
TTITLE3=Johnny Foster (The Old Time Travelling Showman)
TTITLE4=Music My Dad Played To Me
TTITLE5=Old Stock Ridin' Days
TTITLE6=D Towards The Head
TTITLE7=The Day I Went Back Home
TTITLE8=Send 'Er Down Hughie!
TTITLE9=Pub With No Beer
TTITLE10=Many Yesterdays Ago
TTITLE11=Old Bush Mates Of Mine
TTITLE12=Territory Ringer
TTITLE13=In My Hour Of Darkness
EXTD=(P) 1979 * (P) 1946 EMI Music Australia
EXTT0=
EXTT1=
EXTT2=
EXTT3=
EXTT4=
EXTT5=
EXTT6=
EXTT7=
EXTT8=
EXTT9=
EXTT10=
EXTT11=
EXTT12=
EXTT13=
PLAYORDER=
